<svg xmlns="http://www.w3.org/2000/svg" viewBox="0 0 200 200" width="200" height="200">
  <defs>
    <linearGradient id="grad" x1="0%" y1="0%" x2="100%" y2="100%">
      <stop offset="0%" style="stop-color:#3b82f6;stop-opacity:1" />
      <stop offset="100%" style="stop-color:#2563eb;stop-opacity:1" />
    </linearGradient>
  </defs>
  <!-- Cloud shape -->
  <path d="M160 95c0-22-18-40-40-40-4 0-8 0.5-12 1.5C102 40 86 28 68 28c-24 0-44 20-44 44 0 2 0.1 4 0.4 6C12 82 2 94 2 110c0 18 14 32 32 32h124c18 0 32-14 32-32 0-6-1.6-11.5-4.4-16.3" fill="url(#grad)" opacity="0.85"/>
  <!-- Nest (bowl shape) -->
  <path d="M50 130 c0 0 10 40 50 40 s50-40 50-40" fill="none" stroke="#2563eb" stroke-width="8" stroke-linecap="round"/>
  <!-- Nest weave lines -->
  <path d="M62 140 c0 0 8 22 38 22 s38-22 38-22" fill="none" stroke="#2563eb" stroke-width="5" stroke-linecap="round" opacity="0.6"/>
  <path d="M72 150 c0 0 6 12 28 12 s28-12 28-12" fill="none" stroke="#2563eb" stroke-width="3" stroke-linecap="round" opacity="0.4"/>
</svg>
